<?xml version="1.0" encoding="utf-8" ?>
<svg baseProfile="full" height="2048" version="1.1" viewBox="0 0 2048 2048" width="2048" xmlns="http://www.w3.org/2000/svg" xmlns:ev="http://www.w3.org/2001/xml-events" xmlns:xlink="http://www.w3.org/1999/xlink"><defs /><path d="M 412,1408 L 414,1431 L 422,1471 L 460,1590 L 674,1589 L 685,1562 L 699,1536 L 728,1494 L 768,1451 L 810,1417 L 844,1396 L 872,1382 L 913,1366 L 957,1355 L 1020,1348 L 1086,1352 L 1140,1364 L 1181,1379 L 1220,1399 L 1249,1418 L 1284,1447 L 1327,1495 L 1355,1538 L 1372,1571 L 1379,1590 L 1584,1590 L 1589,1587 L 1626,1473 L 1637,1411 L 1635,1407 L 1607,1404 L 1556,1394 L 1468,1365 L 1397,1332 L 1307,1281 L 1247,1250 L 1187,1226 L 1121,1209 L 1051,1201 L 1001,1201 L 969,1204 L 931,1210 L 890,1220 L 840,1237 L 788,1260 L 663,1329 L 586,1365 L 541,1381 L 495,1394 Z" fill="#FFFFFF" stroke="none" /><path d="M 1631,570 L 1159,570 L 1106,375 L 1006,393 L 884,411 L 925,566 L 924,570 L 416,570 L 416,739 L 604,738 L 606,740 L 647,859 L 682,942 L 708,995 L 761,1085 L 786,1121 L 821,1165 L 769,1187 L 731,1206 L 632,1262 L 563,1295 L 488,1320 L 412,1334 L 412,1360 L 483,1348 L 533,1334 L 569,1321 L 635,1290 L 779,1211 L 842,1185 L 921,1163 L 967,1156 L 1016,1153 L 1078,1155 L 1125,1161 L 1165,1170 L 1204,1182 L 1284,1215 L 1423,1292 L 1487,1322 L 1559,1346 L 1600,1355 L 1636,1360 L 1636,1334 L 1556,1318 L 1487,1294 L 1428,1266 L 1316,1203 L 1278,1184 L 1226,1163 L 1275,1095 L 1298,1058 L 1333,994 L 1359,939 L 1388,867 L 1412,798 L 1428,741 L 1430,739 L 1484,738 L 1631,739 Z" fill="#FFFFFF" stroke="none" /></svg>