<?xml version="1.0" encoding="UTF-8" standalone="no"?>
<!DOCTYPE svg PUBLIC "-//W3C//DTD SVG 1.1//EN" "http://www.w3.org/Graphics/SVG/1.1/DTD/svg11.dtd">
<svg width="100%" height="100%" viewBox="0 0 2048 2048" version="1.1" xmlns="http://www.w3.org/2000/svg" xmlns:xlink="http://www.w3.org/1999/xlink" xml:space="preserve" xmlns:serif="http://www.serif.com/" style="fill-rule:evenodd;clip-rule:evenodd;stroke-linejoin:round;stroke-miterlimit:2;" fill="#FFFFFF">
    <path d="M412,1408L414,1431L422,1471L460,1590L674,1589L685,1562L699,1536L728,1494L768,1451L810,1417L844,1396L872,1382L913,1366L957,1355L1020,1348L1086,1352L1140,1364L1181,1379L1220,1399L1249,1418L1284,1447L1327,1495L1355,1538L1372,1571L1379,1590L1584,1590L1589,1587L1626,1473L1637,1411L1635,1407L1607,1404L1556,1394L1468,1365L1397,1332L1307,1281L1247,1250L1187,1226L1121,1209L1051,1201L1001,1201L969,1204L931,1210L890,1220L840,1237L788,1260L663,1329L586,1365L541,1381L495,1394L412,1408Z" style="fill-rule:nonzero;"/>
    <path d="M1631,570L1159,570L1106,375L1006,393L884,411L925,566L924,570L416,570L416,739L604,738L606,740L647,859L682,942L708,995L761,1085L786,1121L821,1165L769,1187L731,1206L632,1262L563,1295L488,1320L412,1334L412,1360L483,1348L533,1334L569,1321L635,1290L779,1211L842,1185L921,1163L967,1156L1016,1153L1078,1155L1125,1161L1165,1170L1204,1182L1284,1215L1423,1292L1487,1322L1559,1346L1600,1355L1636,1360L1636,1334L1556,1318L1487,1294L1428,1266L1316,1203L1278,1184L1226,1163L1275,1095L1298,1058L1333,994L1359,939L1388,867L1412,798L1428,741L1430,739L1484,738L1631,739L1631,570ZM815,739L1105,738L1219,740L1184,847L1163,896L1140,942L1089,1025L1061,1063L1023,1108L1020,1107L963,1039L936,1002L899,943L877,902L846,832L830,789L815,739Z"/>
</svg>
